<?xml version="1.0" encoding="UTF-8" standalone="no"?>
<!DOCTYPE svg PUBLIC "-//W3C//DTD SVG 1.1//EN" "http://www.w3.org/Graphics/SVG/1.1/DTD/svg11.dtd">
<svg xmlns="http://www.w3.org/2000/svg" version="1.1" viewBox="0.00 0.00 512.00 512.00">
<g stroke-width="2.00" fill="none" stroke-linecap="butt">
<path stroke="#eaeaea" stroke-opacity="0.537" vector-effect="non-scaling-stroke" d="
  M 462.08 160.78
  L 462.07 360.05"
/>
<path stroke="#eaeaea" stroke-opacity="0.537" vector-effect="non-scaling-stroke" d="
  M 461.75 366.25
  L 461.59 369.78"
/>
<path stroke="#eaeaea" stroke-opacity="0.537" vector-effect="non-scaling-stroke" d="
  M 461.15 375.23
  L 457.86 395.14"
/>
<path stroke="#eaeaea" stroke-opacity="0.537" vector-effect="non-scaling-stroke" d="
  M 51.06 374.54
  L 50.17 361.23"
/>
<path stroke="#eaeaea" stroke-opacity="0.537" vector-effect="non-scaling-stroke" d="
  M 50.00 314.76
  L 50.08 166.70"
/>
<path stroke="#898989" vector-effect="non-scaling-stroke" d="
  M 368.7425 238.8674
  A 9.99 9.99 0.0 0 0 367.1922 224.8248
  L 236.6262 120.2217
  A 9.99 9.99 0.0 0 0 222.5835 121.7720
  L 149.1175 213.4726
  A 9.99 9.99 0.0 0 0 150.6678 227.5152
  L 281.2338 332.1183
  A 9.99 9.99 0.0 0 0 295.2765 330.5680
  L 368.7425 238.8674"
/>
<path stroke="#898989" vector-effect="non-scaling-stroke" d="
  M 302.3308 389.3779
  A 9.59 9.59 0.0 0 0 300.8190 375.9001
  L 155.5343 259.9209
  A 9.59 9.59 0.0 0 0 142.0566 261.4327
  L 141.9692 261.5421
  A 9.59 9.59 0.0 0 0 143.4810 275.0199
  L 288.7657 390.9991
  A 9.59 9.59 0.0 0 0 302.2434 389.4873
  L 302.3308 389.3779"
/>
<path stroke="#898989" vector-effect="non-scaling-stroke" d="
  M 368.4754 309.0123
  A 9.49 9.49 0.0 0 0 367.3523 295.6384
  L 367.0926 295.4190
  A 9.49 9.49 0.0 0 0 353.7188 296.5420
  L 314.3846 343.0877
  A 9.49 9.49 0.0 0 0 315.5077 356.4616
  L 315.7674 356.6810
  A 9.49 9.49 0.0 0 0 329.1412 355.5580
  L 368.4754 309.0123"
/>
</g>
<path fill="#fbfbfb" d="
  M 462.08 160.78
  L 462.07 360.05
  L 461.75 366.25
  L 461.59 369.78
  L 461.15 375.23
  L 457.86 395.14
  C 449.31 427.82 424.07 451.72 390.98 458.70
  C 378.01 461.44 364.37 461.91 351.50 461.93
  Q 231.20 462.15 183.00 461.99
  C 160.74 461.92 145.63 462.42 127.00 459.77
  C 91.98 454.78 64.12 430.47 54.62 396.28
  Q 51.84 386.25 51.06 374.54
  L 50.17 361.23
  L 50.00 314.76
  L 50.08 166.70
  Q 49.91 152.07 51.10 137.27
  C 52.35 121.83 56.00 106.91 64.11 93.59
  Q 76.78 72.76 97.94 61.68
  C 117.73 51.32 139.57 50.29 161.50 50.22
  Q 251.96 49.93 350.50 50.21
  C 368.89 50.26 388.63 50.87 405.85 57.86
  Q 436.23 70.19 451.18 99.29
  C 460.80 118.04 462.19 140.27 462.08 160.78
  Z
  M 368.7425 238.8674
  A 9.99 9.99 0.0 0 0 367.1922 224.8248
  L 236.6262 120.2217
  A 9.99 9.99 0.0 0 0 222.5835 121.7720
  L 149.1175 213.4726
  A 9.99 9.99 0.0 0 0 150.6678 227.5152
  L 281.2338 332.1183
  A 9.99 9.99 0.0 0 0 295.2765 330.5680
  L 368.7425 238.8674
  Z
  M 302.3308 389.3779
  A 9.59 9.59 0.0 0 0 300.8190 375.9001
  L 155.5343 259.9209
  A 9.59 9.59 0.0 0 0 142.0566 261.4327
  L 141.9692 261.5421
  A 9.59 9.59 0.0 0 0 143.4810 275.0199
  L 288.7657 390.9991
  A 9.59 9.59 0.0 0 0 302.2434 389.4873
  L 302.3308 389.3779
  Z
  M 368.4754 309.0123
  A 9.49 9.49 0.0 0 0 367.3523 295.6384
  L 367.0926 295.4190
  A 9.49 9.49 0.0 0 0 353.7188 296.5420
  L 314.3846 343.0877
  A 9.49 9.49 0.0 0 0 315.5077 356.4616
  L 315.7674 356.6810
  A 9.49 9.49 0.0 0 0 329.1412 355.5580
  L 368.4754 309.0123
  Z"
/>
<rect fill="#161616" x="-93.64" y="-68.74" transform="translate(258.93,226.17) rotate(38.7)" width="187.28" height="137.48" rx="9.99"/>
<path fill="#0a0b07" fill-opacity="0.075" d="
  M 462.07 360.05
  L 462.08 160.78
  C 465.32 164.55 465.44 169.89 465.42 174.92
  Q 465.31 200.47 465.43 221.08
  Q 465.49 231.86 465.31 237.94
  C 465.08 245.89 465.63 252.78 465.57 260.45
  Q 465.38 283.99 465.34 314.36
  C 465.33 323.25 465.65 338.77 465.20 351.00
  Q 465.01 356.24 462.07 360.05
  Z"
/>
<path fill="#0a0b07" fill-opacity="0.075" d="
  M 50.08 166.70
  L 50.00 314.76
  Q 47.95 311.12 47.68 307.84
  Q 46.91 298.27 46.78 280.19
  Q 46.77 278.13 46.57 276.47
  C 46.37 274.84 46.80 273.45 46.78 271.51
  Q 46.66 258.20 46.64 247.81
  Q 46.62 221.71 47.21 180.82
  Q 47.33 172.84 50.08 166.70
  Z"
/>
<rect fill="#161616" x="-102.54" y="-9.66" transform="translate(222.15,325.46) rotate(38.6)" width="205.08" height="19.32" rx="9.59"/>
<rect fill="#161616" x="-9.66" y="-39.96" transform="translate(341.43,326.05) rotate(40.2)" width="19.32" height="79.92" rx="9.49"/>
<path fill="#0a0b07" fill-opacity="0.075" d="
  M 50.17 361.23
  L 51.06 374.54
  Q 51.09 389.98 55.01 403.47
  Q 61.86 427.08 80.67 443.78
  Q 101.51 462.29 131.04 465.61
  Q 146.00 467.30 157.28 467.32
  Q 189.62 467.38 348.00 467.37
  Q 368.70 467.36 385.40 464.91
  C 417.89 460.14 443.49 439.08 455.25 408.57
  Q 458.01 401.41 457.86 395.14
  L 461.15 375.23
  Q 462.91 373.38 461.59 369.78
  L 461.75 366.25
  Q 464.04 374.78 462.81 385.59
  Q 460.53 405.68 453.06 419.66
  Q 440.45 443.25 418.53 455.77
  C 393.75 469.93 365.81 469.79 337.83 469.67
  Q 317.03 469.59 155.12 469.62
  Q 145.99 469.62 133.76 468.30
  Q 121.42 466.97 112.74 464.22
  C 88.76 456.66 69.11 440.46 58.37 417.83
  C 50.55 401.34 46.11 379.37 50.17 361.23
  Z"
/>
</svg>
